# This file uses centimeters as units for non-parametric coordinates.

mtllib Impact.mtl
g default
v -0.616421 0.345894 0.200287
v -0.524359 0.345894 0.380969
v -0.380969 0.345894 0.524359
v -0.200287 0.345894 0.616421
v 0.000000 0.345894 0.648144
v 0.200287 0.345894 0.616421
v 0.380969 0.345894 0.524359
v 0.524359 0.345894 0.380969
v 0.616421 0.345894 0.200287
v 0.648144 0.345894 0.000000
v 0.616421 0.345894 -0.200287
v 0.524359 0.345894 -0.380969
v 0.380969 0.345894 -0.524359
v 0.200287 0.345894 -0.616421
v 0.000000 0.345894 -0.648143
v -0.200287 0.345894 -0.616421
v -0.380969 0.345894 -0.524359
v -0.524359 0.345894 -0.380969
v -0.616421 0.345894 -0.200287
v -0.648143 0.345894 0.000000
v 0.000000 0.000000 0.000000
v 0.951057 0.099661 -0.309017
v 0.809018 0.099661 -0.587786
v 0.587786 0.099661 -0.809017
v 0.309017 0.099661 -0.951057
v 0.000000 0.099661 -1.000000
v -0.309017 0.099661 -0.951057
v -0.587785 0.099661 -0.809017
v -0.809017 0.099661 -0.587785
v -0.951057 0.099661 -0.309017
v -1.000000 0.099661 0.000000
v -0.951057 0.099661 0.309017
v -0.809017 0.099661 0.587785
v -0.587785 0.099661 0.809017
v -0.309017 0.099661 0.951057
v -0.000000 0.099661 1.000000
v 0.309017 0.099661 0.951057
v 0.587785 0.099661 0.809017
v 0.809017 0.099661 0.587785
v 0.951057 0.099661 0.309017
v 1.000000 0.099661 0.000000
v 0.000000 0.000000 0.000000
vt 0.855164 0.855164
vt 0.947533 0.728029
vt 0.996094 0.578573
vt 0.996094 0.421426
vt 0.947532 0.271971
vt 0.855164 0.144836
vt 0.728029 0.052467
vt 0.578573 0.003906
vt 0.421426 0.003906
vt 0.271971 0.052467
vt 0.144836 0.144836
vt 0.052467 0.271971
vt 0.003906 0.421426
vt 0.003906 0.578573
vt 0.052467 0.728029
vt 0.144836 0.855164
vt 0.271971 0.947532
vt 0.421426 0.996094
vt 0.578573 0.996094
vt 0.728029 0.947532
vt 0.500000 0.500000
vt 0.578573 0.996094
vt 0.421426 0.996094
vt 0.500000 0.500000
vt 0.271971 0.947532
vt 0.144836 0.855164
vt 0.052467 0.728029
vt 0.003906 0.578573
vt 0.003906 0.421426
vt 0.052467 0.271971
vt 0.144836 0.144836
vt 0.271971 0.052467
vt 0.421426 0.003906
vt 0.578573 0.003906
vt 0.728029 0.052467
vt 0.855164 0.144836
vt 0.947532 0.271971
vt 0.996094 0.421426
vt 0.996094 0.578573
vt 0.947533 0.728029
vt 0.855164 0.855164
vt 0.728029 0.947532
vn 0.447776 0.882230 -0.145491
vn 0.380900 0.882230 -0.276740
vn -0.000000 1.000000 0.000000
vn 0.276740 0.882230 -0.380901
vn 0.145491 0.882230 -0.447775
vn -0.000000 0.882230 -0.470819
vn -0.145491 0.882230 -0.447775
vn -0.276741 0.882230 -0.380901
vn -0.380901 0.882230 -0.276740
vn -0.447776 0.882230 -0.145491
vn -0.470819 0.882230 0.000000
vn -0.447776 0.882230 0.145491
vn -0.380901 0.882230 0.276741
vn -0.276741 0.882230 0.380901
vn -0.145491 0.882230 0.447776
vn 0.000000 0.882230 0.470819
vn 0.145491 0.882230 0.447776
vn 0.276741 0.882230 0.380901
vn 0.380901 0.882230 0.276741
vn 0.447776 0.882230 0.145491
vn 0.470819 0.882230 0.000000
vn -0.094316 0.995071 0.030645
vn -0.080230 0.995071 0.058291
vn 0.000000 1.000000 0.000000
vn -0.058291 0.995071 0.080230
vn -0.030645 0.995071 0.094316
vn 0.000000 0.995071 0.099170
vn 0.030645 0.995071 0.094316
vn 0.058291 0.995070 0.080230
vn 0.080230 0.995070 0.058291
vn 0.094316 0.995070 0.030645
vn 0.099170 0.995071 0.000000
vn 0.094316 0.995070 -0.030645
vn 0.080230 0.995070 -0.058291
vn 0.058291 0.995071 -0.080230
vn 0.030645 0.995071 -0.094316
vn -0.000000 0.995070 -0.099170
vn -0.030645 0.995070 -0.094316
vn -0.058291 0.995071 -0.080230
vn -0.080230 0.995071 -0.058291
vn -0.094316 0.995071 -0.030645
vn -0.099170 0.995071 -0.000000
s 1
g Impact
usemtl initialShadingGroup
f 1/19/1 2/18/2 21/21/3
f 2/18/2 3/17/4 21/21/3
f 3/17/4 4/16/5 21/21/3
f 4/16/5 5/15/6 21/21/3
f 5/15/6 6/14/7 21/21/3
f 6/14/7 7/13/8 21/21/3
f 7/13/8 8/12/9 21/21/3
f 8/12/9 9/11/10 21/21/3
f 9/11/10 10/10/11 21/21/3
f 10/10/11 11/9/12 21/21/3
f 11/9/12 12/8/13 21/21/3
f 12/8/13 13/7/14 21/21/3
f 13/7/14 14/6/15 21/21/3
f 14/6/15 15/5/16 21/21/3
f 15/5/16 16/4/17 21/21/3
f 16/4/17 17/3/18 21/21/3
f 17/3/18 18/2/19 21/21/3
f 18/2/19 19/1/20 21/21/3
f 19/1/20 20/20/21 21/21/3
f 20/20/21 1/19/1 21/21/3
s 2
f 22/22/22 23/23/23 42/24/24
f 23/23/23 24/25/25 42/24/24
f 24/25/25 25/26/26 42/24/24
f 25/26/26 26/27/27 42/24/24
f 26/27/27 27/28/28 42/24/24
f 27/28/28 28/29/29 42/24/24
f 28/29/29 29/30/30 42/24/24
f 29/30/30 30/31/31 42/24/24
f 30/31/31 31/32/32 42/24/24
f 31/32/32 32/33/33 42/24/24
f 32/33/33 33/34/34 42/24/24
f 33/34/34 34/35/35 42/24/24
f 34/35/35 35/36/36 42/24/24
f 35/36/36 36/37/37 42/24/24
f 36/37/37 37/38/38 42/24/24
f 37/38/38 38/39/39 42/24/24
f 38/39/39 39/40/40 42/24/24
f 39/40/40 40/41/41 42/24/24
f 40/41/41 41/42/42 42/24/24
f 41/42/42 22/22/22 42/24/24
